<svg width="30" height="28" viewBox="0 0 30 28" fill="none" xmlns="http://www.w3.org/2000/svg">
<g filter="url(#filter0_d_1_16858)">
<path d="M23.4615 6.511C24.3682 6.795 25 7.639 25 8.608V12.894C25 14.03 24.1313 14.994 22.9692 15.087C22.6205 15.114 22.2718 15.139 21.9231 15.159V18.25L18.8462 15.25C17.4574 15.25 16.0831 15.195 14.7231 15.087C14.427 15.0637 14.139 14.9813 13.8769 14.845M23.4615 6.511C23.3031 6.46127 23.1393 6.42939 22.9733 6.416C20.2266 6.19368 17.4657 6.19368 14.719 6.416C13.559 6.51 12.6923 7.473 12.6923 8.608V12.894C12.6923 13.731 13.1641 14.474 13.8769 14.845M23.4615 6.511V4.637C23.4615 3.016 22.28 1.611 20.6308 1.402C18.5085 1.13379 16.3708 0.999513 14.2308 1C12.0615 1 9.92513 1.137 7.83077 1.402C6.18154 1.611 5 3.016 5 4.637V10.863C5 12.484 6.18154 13.889 7.83077 14.098C8.42256 14.173 9.01744 14.238 9.61539 14.292V19L13.8769 14.845" fill="#E0E0D1"/>
<path d="M23.4615 6.511C24.3682 6.795 25 7.639 25 8.608V12.894C25 14.03 24.1313 14.994 22.9692 15.087C22.6205 15.114 22.2718 15.139 21.9231 15.159V18.25L18.8462 15.25C17.4574 15.25 16.0831 15.195 14.7231 15.087C14.427 15.0637 14.139 14.9813 13.8769 14.845M23.4615 6.511C23.3031 6.46127 23.1393 6.42939 22.9733 6.416C20.2266 6.19368 17.4657 6.19368 14.719 6.416C13.559 6.51 12.6923 7.473 12.6923 8.608V12.894C12.6923 13.731 13.1641 14.474 13.8769 14.845M23.4615 6.511V4.637C23.4615 3.016 22.28 1.611 20.6308 1.402C18.5085 1.13379 16.3708 0.999513 14.2308 1C12.0615 1 9.92513 1.137 7.83077 1.402C6.18154 1.611 5 3.016 5 4.637V10.863C5 12.484 6.18154 13.889 7.83077 14.098C8.42256 14.173 9.01744 14.238 9.61538 14.292V19L13.8769 14.845" stroke="#0C0E11" stroke-linecap="round" stroke-linejoin="round"/>
</g>
</svg>
