<svg width="14" height="13" viewBox="0 0 14 13" fill="none" xmlns="http://www.w3.org/2000/svg">
<path d="M4.84841 6.86658L6.30841 8.32658L8.74174 4.91992M12.6351 6.37992C12.6351 7.20271 12.2263 7.93076 11.6014 8.37071C11.6687 8.75535 11.6424 9.15055 11.5246 9.52284C11.4067 9.89514 11.201 10.2336 10.9246 10.5094C10.6487 10.7858 10.3103 10.9916 9.938 11.1094C9.56571 11.2272 9.17051 11.2536 8.78587 11.1862C8.56149 11.5058 8.26342 11.7666 7.91688 11.9465C7.57034 12.1265 7.18555 12.2202 6.79508 12.2199C5.97229 12.2199 5.24423 11.8111 4.80429 11.1862C4.41965 11.2535 4.02446 11.2271 3.65218 11.1093C3.27989 10.9915 2.94147 10.7857 2.66555 10.5094C2.3892 10.2336 2.18341 9.89514 2.0656 9.52284C1.94779 9.15055 1.92143 8.75535 1.98876 8.37071C1.6692 8.14633 1.40841 7.84826 1.22847 7.50172C1.04854 7.15518 0.954761 6.77038 0.955079 6.37992C0.955079 5.55713 1.36388 4.82907 1.98876 4.38913C1.92143 4.00449 1.94779 3.60928 2.0656 3.23699C2.18341 2.8647 2.3892 2.52628 2.66555 2.25039C2.94147 1.97409 3.27989 1.76833 3.65218 1.65052C4.02446 1.53271 4.41965 1.50633 4.80429 1.5736C5.0287 1.25407 5.32679 0.993313 5.67332 0.813385C6.01985 0.633456 6.40462 0.539654 6.79508 0.539918C7.61787 0.539918 8.34592 0.948717 8.78587 1.5736C9.17051 1.50633 9.5657 1.53271 9.93798 1.65052C10.3103 1.76833 10.6487 1.97409 10.9246 2.25039C11.2009 2.52631 11.4067 2.86473 11.5245 3.23702C11.6423 3.6093 11.6687 4.00449 11.6014 4.38913C11.921 4.6135 12.1818 4.91158 12.3617 5.25812C12.5416 5.60466 12.6354 5.98945 12.6351 6.37992Z" stroke="#3d8775" stroke-linecap="round" stroke-linejoin="round"/>
</svg>
