<svg width="15" height="18" viewBox="0 0 15 18" fill="none" xmlns="http://www.w3.org/2000/svg">
<path d="M4.68182 5.29545V4.15655C4.68182 3.22791 5.37318 2.44 6.29855 2.36309C6.60373 2.33855 6.91055 2.31645 7.21736 2.29764M10.8182 13.8864H12.6591C13.1473 13.8864 13.6156 13.6924 13.9608 13.3472C14.306 13.0019 14.5 12.5337 14.5 12.0455V4.15655C14.5 3.22791 13.8086 2.44 12.8833 2.36309C12.5773 2.33771 12.271 2.31589 11.9645 2.29764M11.9645 2.29764C11.8482 1.92184 11.614 1.59313 11.2974 1.35962C10.9809 1.12612 10.5979 1.00009 10.2045 1H8.97727C8.58392 1.00009 8.20094 1.12612 7.8844 1.35962C7.56785 1.59313 7.33439 1.92184 7.21818 2.29764C7.165 2.46945 7.13636 2.65191 7.13636 2.84091V3.45455H12.0455V2.84091C12.0455 2.65191 12.0176 2.46945 11.9645 2.29764ZM10.8182 14.5V12.9659C10.8182 12.2336 10.5273 11.5312 10.0094 11.0133C9.49154 10.4955 8.78918 10.2045 8.05682 10.2045H6.82955C6.58543 10.2045 6.3513 10.1076 6.17869 9.93495C6.00607 9.76233 5.90909 9.52821 5.90909 9.28409V8.05682C5.90909 7.32446 5.61816 6.6221 5.10031 6.10424C4.58245 5.58638 3.88009 5.29545 3.14773 5.29545H2.22727M3.45455 5.29545H1.92045C1.41236 5.29545 1 5.70782 1 6.21591V16.0341C1 16.5422 1.41236 16.9545 1.92045 16.9545H9.89773C10.4058 16.9545 10.8182 16.5422 10.8182 16.0341V12.6591C10.8182 10.7061 10.0424 8.83316 8.66142 7.45221C7.28047 6.07126 5.4075 5.29545 3.45455 5.29545Z" stroke="#F1CF96" stroke-linecap="round" stroke-linejoin="round"/>
</svg>
