<svg width="20" height="20" viewBox="0 0 20 20" fill="none" xmlns="http://www.w3.org/2000/svg">
<path d="M7 13L13 7M19 10.001C19 11.269 18.37 12.391 17.407 13.07C17.5107 13.6628 17.47 14.2718 17.2885 14.8455C17.1069 15.4192 16.7898 15.9408 16.364 16.366C15.9388 16.7919 15.4173 17.109 14.8436 17.2906C14.2698 17.4721 13.6608 17.5128 13.068 17.409C12.7222 17.9015 12.2629 18.3034 11.7288 18.5807C11.1948 18.858 10.6017 19.0025 10 19.002C8.732 19.002 7.61 18.372 6.932 17.409C6.33923 17.5128 5.73019 17.4721 5.15645 17.2906C4.58271 17.109 4.06117 16.7919 3.636 16.366C3.21004 15.9407 2.89285 15.419 2.7113 14.8451C2.52974 14.2711 2.48916 13.6619 2.593 13.069C2.10058 12.7232 1.69873 12.2638 1.42144 11.7297C1.14415 11.1957 0.999595 10.6027 1 10.001C1 8.733 1.63 7.611 2.593 6.933C2.48916 6.34008 2.52974 5.73086 2.7113 5.15695C2.89285 4.58303 3.21004 4.06132 3.636 3.636C4.06127 3.2103 4.58285 2.89334 5.15658 2.71196C5.73032 2.53058 6.33931 2.49012 6.932 2.594C7.27767 2.10134 7.73699 1.69924 8.27105 1.42177C8.8051 1.1443 9.39817 0.999624 10 1C11.268 1 12.39 1.63 13.068 2.593C13.6608 2.48925 14.2698 2.52987 14.8436 2.71142C15.4173 2.89298 15.9388 3.21012 16.364 3.636C16.79 4.06132 17.1071 4.58303 17.2887 5.15695C17.4703 5.73086 17.5108 6.34008 17.407 6.933C17.8994 7.27884 18.3013 7.73822 18.5786 8.27226C18.8558 8.80629 19.0004 9.39927 19 10.001ZM7.75 7.75H7.758V7.757H7.75V7.75ZM8.125 7.75C8.125 7.84946 8.08549 7.94484 8.01517 8.01517C7.94484 8.08549 7.84946 8.125 7.75 8.125C7.65054 8.125 7.55516 8.08549 7.48484 8.01517C7.41451 7.94484 7.375 7.84946 7.375 7.75C7.375 7.65054 7.41451 7.55516 7.48484 7.48484C7.55516 7.41451 7.65054 7.375 7.75 7.375C7.84946 7.375 7.94484 7.41451 8.01517 7.48484C8.08549 7.55516 8.125 7.65054 8.125 7.75ZM12.25 12.25H12.258V12.258H12.25V12.25ZM12.625 12.25C12.625 12.3495 12.5855 12.4448 12.5152 12.5152C12.4448 12.5855 12.3495 12.625 12.25 12.625C12.1505 12.625 12.0552 12.5855 11.9848 12.5152C11.9145 12.4448 11.875 12.3495 11.875 12.25C11.875 12.1505 11.9145 12.0552 11.9848 11.9848C12.0552 11.9145 12.1505 11.875 12.25 11.875C12.3495 11.875 12.4448 11.9145 12.5152 11.9848C12.5855 12.0552 12.625 12.1505 12.625 12.25Z" stroke="#0098EA" stroke-width="1.5" stroke-linecap="round" stroke-linejoin="round"/>
</svg>
