<svg width="13" height="13" viewBox="0 0 13 13" fill="none" xmlns="http://www.w3.org/2000/svg">
<path d="M6.37014 1.73809C6.79976 0.957162 7.59854 0 8.92659 0C9.26663 2.61349e-05 9.60113 0.086073 9.89896 0.250133C10.1968 0.414192 10.4483 0.650932 10.63 0.938319C10.8118 1.22571 10.9179 1.5544 10.9384 1.89381C10.959 2.23322 10.8933 2.57232 10.7476 2.87954H12.0941C12.2468 2.87955 12.3933 2.94022 12.5013 3.04823C12.6093 3.15623 12.67 3.30272 12.67 3.45546V6.335C12.67 6.48774 12.6093 6.63422 12.5013 6.74223C12.3933 6.85023 12.2468 6.91091 12.0941 6.91091H11.5182V12.0941C11.5182 12.2468 11.4575 12.3933 11.3495 12.5013C11.2415 12.6093 11.095 12.67 10.9423 12.67H1.72773C1.57499 12.67 1.4285 12.6093 1.3205 12.5013C1.2125 12.3933 1.15182 12.2468 1.15181 12.0941V6.91091H0.5759C0.423161 6.91091 0.276678 6.85023 0.168677 6.74223C0.0606746 6.63422 0 6.48774 0 6.335V3.45546C0 3.30272 0.0606746 3.15623 0.168677 3.04823C0.276678 2.94022 0.423161 2.87955 0.5759 2.87954H1.92238C1.77665 2.57232 1.71101 2.23322 1.73157 1.89381C1.75213 1.5544 1.85822 1.22571 2.03996 0.938319C2.22171 0.650932 2.4732 0.414192 2.77104 0.250133C3.06887 0.086073 3.40337 2.61349e-05 3.74341 0C5.07146 0 5.87024 0.957162 6.29987 1.73809L6.335 1.80317L6.37014 1.73809ZM5.75909 4.03136H1.15181V5.75909H5.75909V4.03136ZM5.55983 2.87954C5.48345 2.67821 5.3934 2.48232 5.2903 2.29326C4.92805 1.63443 4.43104 1.15181 3.74341 1.15181C3.5143 1.15181 3.29457 1.24283 3.13256 1.40483C2.97056 1.56684 2.87954 1.78657 2.87954 2.01568C2.87954 2.24479 2.97056 2.46452 3.13256 2.62652C3.29457 2.78853 3.5143 2.87954 3.74341 2.87954H5.55983ZM9.53763 2.62615C9.65832 2.5053 9.74049 2.35139 9.77374 2.18386C9.80699 2.01634 9.78984 1.84271 9.72445 1.68493C9.65906 1.52715 9.54836 1.39229 9.40635 1.2974C9.26434 1.20252 9.09739 1.15185 8.92659 1.15181C8.23896 1.15181 7.74195 1.63443 7.37969 2.29326C7.27661 2.48232 7.18656 2.67821 7.11018 2.87954H8.92659C9.15563 2.87934 9.37578 2.7882 9.53763 2.62615ZM6.91091 5.75909H11.5182V4.03136H6.91091V5.75909ZM6.91091 11.5182H10.3664V6.91091H6.91091V11.5182ZM5.75909 6.91091H2.30363V11.5182H5.75909V6.91091Z" fill="#6b60b2"/>
</svg>
