<svg width="23" height="23" viewBox="0 0 23 23" fill="none" xmlns="http://www.w3.org/2000/svg">
<g filter="url(#filter0_d_1_16869)">
<path d="M11.374 6.012C11.8713 5.108 12.796 4 14.3333 4C14.7269 4.00003 15.1142 4.09964 15.4589 4.28955C15.8037 4.47946 16.0948 4.75351 16.3052 5.08619C16.5156 5.41887 16.6384 5.79936 16.6622 6.19226C16.686 6.58516 16.61 6.97769 16.4413 7.33333H18C18.1768 7.33333 18.3464 7.40357 18.4714 7.5286C18.5964 7.65362 18.6667 7.82319 18.6667 8V11.3333C18.6667 11.5101 18.5964 11.6797 18.4714 11.8047C18.3464 11.9298 18.1768 12 18 12H17.3333V18C17.3333 18.1768 17.2631 18.3464 17.1381 18.4714C17.013 18.5964 16.8435 18.6667 16.6667 18.6667H6C5.82319 18.6667 5.65362 18.5964 5.5286 18.4714C5.40357 18.3464 5.33333 18.1768 5.33333 18V12H4.66666C4.48985 12 4.32028 11.9298 4.19526 11.8047C4.07024 11.6797 4 11.5101 4 11.3333V8C4 7.82319 4.07024 7.65362 4.19526 7.5286C4.32028 7.40357 4.48985 7.33333 4.66666 7.33333H6.22533C6.05663 6.97769 5.98065 6.58516 6.00445 6.19226C6.02825 5.79936 6.15105 5.41887 6.36144 5.08619C6.57182 4.75351 6.86295 4.47946 7.20772 4.28955C7.5525 4.09964 7.93971 4.00003 8.33333 4C9.87067 4 10.7953 5.108 11.2927 6.012L11.3333 6.08733L11.374 6.012ZM10.6667 8.66666H5.33333V10.6667H10.6667V8.66666ZM10.436 7.33333C10.3476 7.10026 10.2433 6.87351 10.124 6.65466C9.70466 5.892 9.12933 5.33333 8.33333 5.33333C8.06811 5.33333 7.81376 5.43868 7.62622 5.62622C7.43869 5.81376 7.33333 6.06811 7.33333 6.33333C7.33333 6.59854 7.43869 6.8529 7.62622 7.04043C7.81376 7.22797 8.06811 7.33333 8.33333 7.33333H10.436H10.436ZM15.0407 7.04C15.1804 6.90011 15.2755 6.72195 15.314 6.52802C15.3525 6.33409 15.3326 6.1331 15.2569 5.95046C15.1812 5.76781 15.0531 5.61171 14.8887 5.50186C14.7243 5.39202 14.531 5.33337 14.3333 5.33333C13.5373 5.33333 12.962 5.892 12.5427 6.65466C12.4233 6.87351 12.3191 7.10026 12.2307 7.33333H14.3333C14.5985 7.3331 14.8526 7.22759 15.04 7.04H15.0407ZM12 10.6667H17.3333V8.66666H12V10.6667ZM12 17.3333H16V12H12V17.3333ZM10.6667 12H6.66666V17.3333H10.6667V12Z" fill="url(#paint0_linear_1_16869)"/>
</g>
<defs>
<filter id="filter0_d_1_16869" x="0" y="0" width="22.6667" height="22.6667" filterUnits="userSpaceOnUse" color-interpolation-filters="sRGB">
<feFlood flood-opacity="0" result="BackgroundImageFix"/>
<feColorMatrix in="SourceAlpha" type="matrix" values="0 0 0 0 0 0 0 0 0 0 0 0 0 0 0 0 0 0 127 0" result="hardAlpha"/>
<feOffset/>
<feGaussianBlur stdDeviation="2"/>
<feComposite in2="hardAlpha" operator="out"/>
<feColorMatrix type="matrix" values="0 0 0 0 0.541176 0 0 0 0 0.431373 0 0 0 0 1 0 0 0 1 0"/>
<feBlend mode="normal" in2="BackgroundImageFix" result="effect1_dropShadow_1_16869"/>
<feBlend mode="normal" in="SourceGraphic" in2="effect1_dropShadow_1_16869" result="shape"/>
</filter>
<linearGradient id="paint0_linear_1_16869" x1="4" y1="11.3333" x2="18.6667" y2="11.3333" gradientUnits="userSpaceOnUse">
<stop stop-color="#FFA563"/>
<stop offset="1" stop-color="#FF3B3B"/>
</linearGradient>
</defs>
</svg>
