<svg width="21" height="21" viewBox="0 0 21 21" fill="none" xmlns="http://www.w3.org/2000/svg">
<path d="M10.3923 2.83555C11.0932 1.56153 12.3963 0 14.563 0C15.1177 4.26368e-05 15.6634 0.140421 16.1493 0.408069C16.6352 0.675718 17.0455 1.06194 17.342 1.53079C17.6385 1.99963 17.8116 2.53587 17.8451 3.08959C17.8786 3.64331 17.7715 4.19652 17.5338 4.69772H19.7305C19.9796 4.69773 20.2186 4.79672 20.3948 4.97292C20.571 5.14912 20.67 5.3881 20.67 5.63728V10.335C20.67 10.5842 20.571 10.8232 20.3948 10.9994C20.2186 11.1756 19.9796 11.2745 19.7305 11.2746H18.7909V19.7305C18.7909 19.9796 18.6919 20.2186 18.5157 20.3948C18.3395 20.571 18.1005 20.67 17.8514 20.67H2.81864C2.56946 20.67 2.33048 20.571 2.15428 20.3948C1.97808 20.2186 1.87909 19.9796 1.87908 19.7305V11.2746H0.939531C0.69035 11.2745 0.451377 11.1756 0.275181 10.9994C0.0989854 10.8232 0 10.5842 0 10.335V5.63728C0 5.3881 0.0989854 5.14912 0.275181 4.97292C0.451377 4.79672 0.69035 4.69773 0.939531 4.69772H3.1362C2.89845 4.19652 2.79137 3.64331 2.82491 3.08959C2.85845 2.53587 3.03152 1.99963 3.32802 1.53079C3.62452 1.06194 4.03481 0.675718 4.5207 0.408069C5.0066 0.140421 5.55231 4.26368e-05 6.10704 0C8.27365 0 9.57679 1.56153 10.2777 2.83555L10.335 2.94171L10.3923 2.83555ZM9.39545 6.57681H1.87908V9.39545H9.39545V6.57681ZM9.07038 4.69772C8.94577 4.36926 8.79885 4.04969 8.63067 3.74126C8.03968 2.66643 7.22886 1.87908 6.10704 1.87908C5.73327 1.87908 5.3748 2.02757 5.1105 2.29186C4.84621 2.55616 4.69772 2.91463 4.69772 3.2884C4.69772 3.66218 4.84621 4.02064 5.1105 4.28494C5.3748 4.54924 5.73327 4.69772 6.10704 4.69772H9.07036H9.07038ZM15.5598 4.28433C15.7567 4.08718 15.8908 3.83609 15.945 3.56278C15.9993 3.28948 15.9713 3.00623 15.8646 2.74882C15.7579 2.49141 15.5773 2.27141 15.3456 2.1166C15.114 1.9618 14.8416 1.87914 14.563 1.87908C13.4411 1.87908 12.6303 2.66643 12.0393 3.74126C11.8712 4.04969 11.7242 4.36926 11.5996 4.69772H14.563C14.9366 4.6974 15.2948 4.5487 15.5589 4.28433H15.5598ZM11.2746 9.39545H18.7909V6.57681H11.2746V9.39545ZM11.2746 18.7909H16.9118V11.2746H11.2746V18.7909ZM9.39545 11.2746H3.75817V18.7909H9.39545V11.2746Z" fill="#8E96BC"/>
</svg>
