<svg width="20" height="28" viewBox="0 0 20 28" fill="none" xmlns="http://www.w3.org/2000/svg">
<path fill-rule="evenodd" clip-rule="evenodd" d="M10 0C8.14348 0 6.36301 0.737498 5.05025 2.05025C3.7375 3.36301 3 5.14348 3 7V12C2.20435 12 1.44129 12.3161 0.87868 12.8787C0.316071 13.4413 0 14.2044 0 15V25C0 25.7956 0.316071 26.5587 0.87868 27.1213C1.44129 27.6839 2.20435 28 3 28H17C17.7956 28 18.5587 27.6839 19.1213 27.1213C19.6839 26.5587 20 25.7956 20 25V15C20 14.2044 19.6839 13.4413 19.1213 12.8787C18.5587 12.3161 17.7956 12 17 12V7C17 5.14348 16.2625 3.36301 14.9497 2.05025C13.637 0.737498 11.8565 0 10 0ZM14 12V7C14 5.93913 13.5786 4.92172 12.8284 4.17157C12.0783 3.42143 11.0609 3 10 3C8.93913 3 7.92172 3.42143 7.17157 4.17157C6.42143 4.92172 6 5.93913 6 7V12H14Z" fill="#E0E0D1"/>
</svg>
