<svg width="25" height="29" viewBox="0 0 25 29" fill="none" xmlns="http://www.w3.org/2000/svg">
<g filter="url(#filter0_d_1_16771)">
<path d="M12.9225 5.07209C12.8929 5.0271 12.8426 5 12.7887 5C12.7348 5 12.6845 5.0271 12.6548 5.07209L7.47766 12.922C7.44518 12.9712 7.44238 13.0343 7.47032 13.0863C7.49827 13.1383 7.55252 13.1707 7.61154 13.1707H10.2121V20.6857C10.2121 20.7743 10.2839 20.8461 10.3725 20.8461H15.2044C15.293 20.8461 15.3648 20.7743 15.3648 20.6857V13.1707H17.9658C18.0248 13.1707 18.079 13.1383 18.107 13.0863C18.135 13.0343 18.1322 12.9712 18.0997 12.922L12.9225 5.07209Z" fill="#4ADE80"/>
<path d="M12.9225 1.29421C12.8929 1.24923 12.8426 1.22212 12.7887 1.22212C12.7348 1.22212 12.6845 1.24923 12.6548 1.29421L7.47766 9.14407C7.44518 9.19335 7.44238 9.25646 7.47032 9.30842C7.49827 9.36038 7.55252 9.39277 7.61154 9.39277H8.99203C9.0806 9.39277 9.15241 9.32097 9.15241 9.2324C9.15241 9.14383 9.0806 9.07203 8.99203 9.07203H7.90945L12.7886 1.67381L17.6678 9.07199H16.5853C16.4967 9.07199 16.4249 9.14379 16.4249 9.23236C16.4249 9.32093 16.4967 9.39273 16.5853 9.39273H17.9658C18.0248 9.39273 18.079 9.36034 18.107 9.30838C18.135 9.25642 18.1321 9.19331 18.0996 9.14403L12.9225 1.29421Z" fill="#4ADE80"/>
<path d="M7.80296 2.21007H8.47576V2.89165C8.47576 2.98022 8.54757 3.05203 8.63614 3.05203C8.72471 3.05203 8.79653 2.98022 8.79653 2.89165V2.21007H9.46933C9.5579 2.21007 9.62971 2.13826 9.62971 2.0497C9.62971 1.96113 9.5579 1.88932 9.46933 1.88932H8.79653V1.20774C8.79653 1.11917 8.72471 1.04736 8.63614 1.04736C8.54757 1.04736 8.47576 1.11917 8.47576 1.20774V1.88932H7.80296C7.71439 1.88932 7.64258 1.96113 7.64258 2.0497C7.64258 2.13826 7.71439 2.21007 7.80296 2.21007Z" fill="#4ADE80"/>
<path d="M8.11741 6.78866V5.74222C8.11741 5.65366 8.0456 5.58185 7.95702 5.58185H6.73692V4.34658C6.73692 4.25801 6.66511 4.1862 6.57654 4.1862H5.54087C5.4523 4.1862 5.38049 4.25801 5.38049 4.34658V5.58189H4.16038C4.07181 5.58189 4 5.6537 4 5.74226V6.7887C4 6.87726 4.07181 6.94907 4.16038 6.94907H5.38049V8.18435C5.38049 8.27291 5.4523 8.34472 5.54087 8.34472H6.57654C6.66511 8.34472 6.73692 8.27291 6.73692 8.18435V6.94907H7.95702C8.0456 6.94903 8.11741 6.87722 8.11741 6.78866Z" fill="#4ADE80"/>
<path d="M20.8385 7.00767H20.1657V6.32569C20.1657 6.23712 20.0939 6.16531 20.0053 6.16531C19.9167 6.16531 19.8449 6.23712 19.8449 6.32569V7.00767H19.1721C19.0835 7.00767 19.0117 7.07948 19.0117 7.16805C19.0117 7.25661 19.0835 7.32842 19.1721 7.32842H19.8449V8.01001C19.8449 8.09857 19.9167 8.17038 20.0053 8.17038C20.0939 8.17038 20.1657 8.09857 20.1657 8.01001V7.32842H20.8385C20.927 7.32842 20.9989 7.25661 20.9989 7.16805C20.9989 7.07948 20.927 7.00767 20.8385 7.00767Z" fill="#4ADE80"/>
<path d="M19.1584 3.9981V2.76283H20.3785C20.4671 2.76283 20.5389 2.69102 20.5389 2.60245V1.55602C20.5389 1.46745 20.4671 1.39565 20.3785 1.39565H19.1584V0.160373C19.1584 0.0718071 19.0866 0 18.998 0H17.9627C17.8742 0 17.8024 0.0718071 17.8024 0.160373V1.39565H16.5823C16.4937 1.39565 16.4219 1.46745 16.4219 1.55602V2.60245C16.4219 2.69102 16.4937 2.76283 16.5823 2.76283H17.8024V3.9981C17.8024 4.08667 17.8742 4.15847 17.9627 4.15847H18.998C19.0866 4.15847 19.1584 4.08667 19.1584 3.9981Z" fill="#4ADE80"/>
</g>
<defs>
<filter id="filter0_d_1_16771" x="0" y="0" width="24.9988" height="28.8461" filterUnits="userSpaceOnUse" color-interpolation-filters="sRGB">
<feFlood flood-opacity="0" result="BackgroundImageFix"/>
<feColorMatrix in="SourceAlpha" type="matrix" values="0 0 0 0 0 0 0 0 0 0 0 0 0 0 0 0 0 0 127 0" result="hardAlpha"/>
<feOffset dy="4"/>
<feGaussianBlur stdDeviation="2"/>
<feComposite in2="hardAlpha" operator="out"/>
<feColorMatrix type="matrix" values="0 0 0 0 0.290196 0 0 0 0 0.870588 0 0 0 0 0.501961 0 0 0 1 0"/>
<feBlend mode="normal" in2="BackgroundImageFix" result="effect1_dropShadow_1_16771"/>
<feBlend mode="normal" in="SourceGraphic" in2="effect1_dropShadow_1_16771" result="shape"/>
</filter>
</defs>
</svg>
